<?xml version="1.0" encoding="utf-8"?>
<!-- Generator: Adobe Illustrator 27.5.0, SVG Export Plug-In . SVG Version: 6.00 Build 0)  -->
<svg version="1.1" xmlns="http://www.w3.org/2000/svg" xmlns:xlink="http://www.w3.org/1999/xlink" x="0px" y="0px"
	 viewBox="0 0 750 500" style="enable-background:new 0 0 750 500;" xml:space="preserve">
<g id="BACKGROUND">
	<g>
		<rect style="fill:#DEE7FE;" width="750" height="500"/>
		
			<line style="fill:none;stroke:#95AAEA;stroke-width:0.8504;stroke-miterlimit:10;" x1="50.741" y1="405.81" x2="694.911" y2="405.81"/>
		
			<line style="fill:none;stroke:#95AAEA;stroke-width:0.8504;stroke-miterlimit:10;" x1="50.741" y1="415.417" x2="694.911" y2="415.417"/>
		<g>
			<path style="opacity:0.2;fill:#3B749B;" d="M311.286,457.575c-0.203,0-0.402,0.001-0.604,0.001
				c-8.697-0.254-19.288-0.404-30.717-0.404c-29.578,0-53.556,1-53.556,2.233s23.978,2.233,53.556,2.233
				c3.971,0,7.839-0.018,11.564-0.052c4.566,0.589,11.715,0.968,19.757,0.968c13.789,0,24.967-1.115,24.967-2.49
				C336.253,458.689,325.075,457.575,311.286,457.575z"/>
			
				<rect x="252.461" y="410.272" transform="matrix(-1 -1.224647e-16 1.224647e-16 -1 558.5502 823.314)" style="fill:#6B1C0A;" width="53.629" height="2.77"/>
			<path style="fill:#6B1C0A;" d="M304.072,392.398c0.215,1.075,13.978,67.74,13.978,67.74h-2.366l-20.645-66.45L304.072,392.398z"
				/>
			<path style="fill:#6B1C0A;" d="M251.386,392.398c-0.215,1.075-13.978,67.74-13.978,67.74h2.365l20.645-66.45L251.386,392.398z"/>
			<path style="fill:#6B1C0A;" d="M270.096,392.398c-0.086,1.075-5.837,67.74-5.837,67.74h2.365l12.658-66.45L270.096,392.398z"/>
			<path style="fill:#FF3E38;" d="M245.364,293.691c19.995-0.408,26.236,16.344,30.537,26.881
				c4.301,10.537,8.35,40.997,20.214,47.095c17.849,9.175,30.107,3.441,31.612,10.967c1.505,7.527-9.247,16.559-39.569,18.709
				c-30.322,2.15-62.364-3.656-64.299-50.536C221.924,299.927,234.827,293.906,245.364,293.691z"/>
			<path style="fill:none;stroke:#87211D;stroke-width:0.8504;stroke-miterlimit:10;" d="M327.864,380.57
				c-13.255,9.677-66.156,13.763-82.715,0s-24.251-87.563,4.54-86.684"/>
			<path style="fill:#EBBC0E;" d="M309.844,372.487c0,0-36.365,6.876-37.078,13.719c-0.699,6.717-3.599,47.604-3.599,47.604h-34.929
				c0,0-8.982-52.522,6.442-62.083C256.512,361.914,286.855,350.42,309.844,372.487z"/>
			<path style="fill:none;stroke:#EB9F0E;stroke-width:0.8504;stroke-miterlimit:10;" d="M309.844,372.487
				c-11.227-4.259-38.546-1.034-43.204,8.476c-4.54,9.269-5.637,52.847-5.637,52.847"/>
		</g>
		<g>
			<path style="opacity:0.2;fill:#3B749B;" d="M654.314,427.636c-0.116,0-0.231,0.001-0.346,0.001
				c-4.988-0.146-11.063-0.232-17.619-0.232c-16.966,0-30.719,0.573-30.719,1.281c0,0.707,13.754,1.281,30.719,1.281
				c2.278,0,4.497-0.01,6.633-0.03c2.619,0.338,6.72,0.555,11.332,0.555c7.909,0,14.321-0.639,14.321-1.428
				C668.634,428.275,662.223,427.636,654.314,427.636z"/>
			<g>
				<path style="fill:none;stroke:#326934;stroke-width:0.8504;stroke-miterlimit:10;" d="M648.271,356.735
					c-11.712-0.513-14.428,11.796-14.428,11.796"/>
				<path style="fill:none;stroke:#326934;stroke-width:0.8504;stroke-miterlimit:10;" d="M621.376,351.845
					c16.463-0.716,20.281,16.463,20.281,16.463"/>
				<g>
					<path style="fill:#528653;" d="M651.201,343.255c-5.443-12.52,14.077-24.576,35.79-15.27
						C681.741,340.869,655.973,354.23,651.201,343.255z"/>
					<path style="fill:#5B8C5C;" d="M658.449,345.317c-4.171,0-5.107-2.151-5.414-2.859c-1.211-2.786-0.957-5.623,0.734-8.203
						c3.016-4.599,10.013-7.57,17.827-7.57c4.185,0,8.433,0.792,12.653,2.358C679.705,336.999,666.837,345.317,658.449,345.317z"/>
					<path style="fill:#528653;" d="M662.018,353.174c0,0,16.181-3.066,23.383,5.011c7.532,8.448,4.056,16.94,4.056,16.94
						s-8.351,7.158-17.179-5.488C663.45,356.992,662.018,353.174,662.018,353.174z"/>
					<path style="fill:#5B8C5C;" d="M683.573,375.144c-3.326,0-6.574-2.238-9.655-6.65c-4.95-7.092-7.541-11.37-8.839-13.702
						c1.095-0.103,2.456-0.188,3.959-0.188c4.786,0,11.25,0.852,14.87,4.913c5.645,6.33,4.377,12.603,3.86,14.365
						C687.084,374.323,685.548,375.144,683.573,375.144z"/>
					<path style="fill:none;stroke:#326934;stroke-width:0.8504;stroke-miterlimit:10;" d="M683.492,369.876
						c-12.168-15.986-29.348-27.677-40.085-1.193"/>
					<path style="fill:none;stroke:#326934;stroke-width:0.8504;stroke-miterlimit:10;" d="M633.306,370.455
						c0,0,3.34-34.597,53.685-42.471"/>
					<path style="fill:#528653;" d="M634.692,334.522c-11.784-6.894-3.14-28.147,19.879-33.45
						C657.938,314.571,645.022,340.565,634.692,334.522z"/>
					<path style="fill:#5B8C5C;" d="M637.897,333.418c-0.761,0-1.479-0.203-2.195-0.623c-3.293-1.927-4.756-5.288-4.118-9.465
						c1.082-7.086,8.22-16.064,21.397-19.788c0.821,7.275-2.461,18.112-7.747,24.878
						C642.716,331.644,640.111,333.418,637.897,333.418z"/>
					<path style="fill:none;stroke:#326934;stroke-width:0.8504;stroke-miterlimit:10;" d="M636.3,367.041
						c0,0-17.722-29.9,18.271-65.969"/>
					<path style="fill:#528653;" d="M589.516,352.413c-0.239-8.828,17.656-27.439,27.916-15.747
						C627.692,348.357,597.628,356.708,589.516,352.413z"/>
					<path style="fill:#5B8C5C;" d="M595.75,351.558c-1.626,0-3.041-0.161-4.123-0.462c0.521-2.795,2.785-6.617,5.898-9.816
						c3.878-3.983,8.379-6.361,12.042-6.361c2.471,0,4.552,1.003,6.362,3.065c2.081,2.371,1.722,3.97,1.271,4.966
						C615.04,347.718,603.7,351.558,595.75,351.558z"/>
					<path style="fill:none;stroke:#326934;stroke-width:0.8504;stroke-miterlimit:10;" d="M589.516,352.413
						c20.758-18.134,31.018-21.712,38.414-16.94c7.397,4.772-6.204,23.383-5.726,32.927"/>
				</g>
				<path style="fill:#FF3E38;" d="M651.277,422.671h-30.622c-2.394,0-4.334-1.94-4.334-4.334v-53.833h39.29v53.833
					C655.612,420.73,653.671,422.671,651.277,422.671z"/>
				<rect x="621.186" y="413.316" style="fill:#FF3E38;" width="29.561" height="15.342"/>
				
					<line style="fill:none;stroke:#892C08;stroke-width:0.8504;stroke-miterlimit:10;" x1="620.656" y1="422.671" x2="651.277" y2="422.671"/>
				<path style="fill:#528653;" d="M610.4,360.434c-17.636-6.497-19.088,14.793-7.397,32.688
					C618.274,379.522,624,365.445,610.4,360.434z"/>
				<path style="fill:#5B8C5C;" d="M603.433,390.019c-5.549-9.464-7.56-20.131-4.645-25.518c1.188-2.194,3.059-3.262,5.719-3.262
					c1.522,0,3.272,0.361,5.201,1.072c3.622,1.334,5.719,3.385,6.232,6.096C616.944,373.699,612.295,381.684,603.433,390.019z"/>
				<path style="fill:none;stroke:#326934;stroke-width:0.8504;stroke-miterlimit:10;" d="M603.004,393.122
					c2.625-26.484,1.909-40.562,18.372-41.278"/>
				<path style="fill:#528653;" d="M656.079,362.889c12.546-4.656,13.579,10.6,5.262,23.422
					C650.478,376.566,646.404,366.479,656.079,362.889z"/>
				<path style="fill:#5B8C5C;" d="M660.904,383.166c-5.744-5.595-8.852-11.024-8.196-14.471c0.333-1.753,1.664-3.039,4.068-3.932
					c1.307-0.485,2.483-0.731,3.496-0.731c1.65,0,2.81,0.659,3.546,2.014C665.49,369.124,664.939,375.954,660.904,383.166z"/>
				<path style="fill:none;stroke:#326934;stroke-width:0.8504;stroke-miterlimit:10;" d="M661.341,386.311
					c-1.867-18.977-1.358-29.063-13.07-29.576"/>
				<g style="opacity:0.5;">
					<defs>
						<path id="SVGID_3_" style="opacity:0.5;" d="M651.277,422.671h-30.622c-2.394,0-4.334-1.94-4.334-4.334v-53.833h39.29v53.833
							C655.612,420.73,653.671,422.671,651.277,422.671z"/>
					</defs>
					<clipPath id="SVGID_00000155110522525057865150000009025315699015236762_">
						<use xlink:href="#SVGID_3_"  style="overflow:visible;"/>
					</clipPath>
					<g style="clip-path:url(#SVGID_00000155110522525057865150000009025315699015236762_);">
						
							<rect x="608.444" y="391.151" transform="matrix(0.7071 -0.7071 0.7071 0.7071 -100.4597 549.8304)" style="fill:none;stroke:#E2909E;stroke-width:0.8504;stroke-miterlimit:10;" width="10.059" height="10.059"/>
						
							<rect x="615.941" y="391.151" transform="matrix(0.7071 -0.7071 0.7071 0.7071 -98.2629 555.1356)" style="fill:none;stroke:#E2909E;stroke-width:0.8504;stroke-miterlimit:10;" width="10.059" height="10.059"/>
						
							<rect x="623.439" y="391.151" transform="matrix(0.7071 -0.7071 0.7071 0.7071 -96.0678 560.4331)" style="fill:none;stroke:#E2909E;stroke-width:0.8504;stroke-miterlimit:10;" width="10.059" height="10.059"/>
						
							<rect x="630.937" y="391.151" transform="matrix(0.7071 -0.7071 0.7071 0.7071 -93.8717 565.7349)" style="fill:none;stroke:#E2909E;stroke-width:0.8504;stroke-miterlimit:10;" width="10.059" height="10.059"/>
						
							<rect x="638.435" y="391.151" transform="matrix(0.7071 -0.7071 0.7071 0.7071 -91.6744 571.0418)" style="fill:none;stroke:#E2909E;stroke-width:0.8504;stroke-miterlimit:10;" width="10.059" height="10.059"/>
						
							<rect x="645.933" y="391.151" transform="matrix(0.7071 -0.7071 0.7071 0.7071 -89.4796 576.3384)" style="fill:none;stroke:#E2909E;stroke-width:0.8504;stroke-miterlimit:10;" width="10.059" height="10.059"/>
						
							<rect x="653.431" y="391.151" transform="matrix(0.7071 -0.7071 0.7071 0.7071 -87.2833 581.6411)" style="fill:none;stroke:#E2909E;stroke-width:0.8504;stroke-miterlimit:10;" width="10.059" height="10.059"/>
					</g>
				</g>
			</g>
		</g>
		<g>
			<path style="opacity:0.2;fill:#3B749B;" d="M163.255,425.143c-0.202,0-0.402,0.001-0.604,0.001
				c-8.697-0.168-19.288-0.267-30.717-0.267c-29.578,0-53.556,0.66-53.556,1.475s23.978,1.475,53.556,1.475
				c3.971,0,7.839-0.012,11.564-0.035c4.566,0.389,11.715,0.639,19.757,0.639c13.789,0,24.967-0.736,24.967-1.644
				C188.222,425.879,177.044,425.143,163.255,425.143z"/>
			<g>
				
					<rect x="107.91" y="287.598" transform="matrix(-1 -1.224647e-16 1.224647e-16 -1 240.792 585.2078)" style="fill:#FF3E38;" width="24.972" height="10.012"/>
				<g>
					<path style="fill:#EBBC0E;" d="M91.372,297.61h8.357c1.512,0,2.737-1.226,2.737-2.737v-14.549c0-1.512-1.226-2.737-2.737-2.737
						h-8.357c-1.512,0-2.737,1.226-2.737,2.737v14.549C88.634,296.384,89.86,297.61,91.372,297.61z"/>
					
						<rect x="91.072" y="275.96" transform="matrix(-1 -1.224647e-16 1.224647e-16 -1 191.1001 555.07)" style="fill:#EBBC0E;" width="8.957" height="3.151"/>
					
						<rect x="90.561" y="273.52" transform="matrix(-1 -1.224647e-16 1.224647e-16 -1 191.1 550.1912)" style="fill:#FF3E38;" width="9.977" height="3.151"/>
					
						<line style="opacity:0.2;fill:none;stroke:#272532;stroke-width:0.8504;stroke-linecap:round;stroke-linejoin:round;stroke-miterlimit:10;" x1="102.466" y1="284.422" x2="88.634" y2="284.422"/>
					
						<line style="opacity:0.2;fill:none;stroke:#272532;stroke-width:0.8504;stroke-linecap:round;stroke-linejoin:round;stroke-miterlimit:10;" x1="102.466" y1="291.623" x2="88.634" y2="291.622"/>
				</g>
				<g>
					<g>
						<path style="fill:#425CAD;" d="M166.177,421.468c0,2.865,2.322,5.187,5.187,5.187s5.187-2.322,5.187-5.187
							c0-2.865-2.322-5.187-5.187-5.187S166.177,418.603,166.177,421.468z"/>
						<path style="fill:#B3C2FC;" d="M168.562,421.468c0,1.547,1.254,2.801,2.801,2.801c1.547,0,2.801-1.254,2.801-2.801
							c0-1.547-1.254-2.802-2.801-2.802C169.816,418.666,168.562,419.921,168.562,421.468z"/>
						
							<rect x="170.598" y="410.328" transform="matrix(-1 -1.224647e-16 1.224647e-16 -1 342.7271 831.2011)" style="fill:#272532;" width="1.531" height="10.544"/>
					</g>
					<g>
						<path style="fill:#425CAD;" d="M87.692,421.468c0,2.865,2.322,5.187,5.187,5.187c2.865,0,5.187-2.322,5.187-5.187
							c0-2.865-2.322-5.187-5.187-5.187C90.014,416.281,87.692,418.603,87.692,421.468z"/>
						<path style="fill:#B3C2FC;" d="M90.077,421.468c0,1.547,1.254,2.801,2.802,2.801c1.547,0,2.801-1.254,2.801-2.801
							c0-1.547-1.254-2.802-2.801-2.802C91.331,418.666,90.077,419.921,90.077,421.468z"/>
						
							<rect x="92.113" y="410.328" transform="matrix(-1 -1.224647e-16 1.224647e-16 -1 185.757 831.2011)" style="fill:#272532;" width="1.531" height="10.544"/>
					</g>
				</g>
				
					<rect x="85.778" y="408.439" transform="matrix(-1 -1.224647e-16 1.224647e-16 -1 264.2421 829.8938)" style="fill:#95AAEA;" width="92.685" height="13.016"/>
				
					<rect x="82.292" y="299.482" transform="matrix(-1 -1.224647e-16 1.224647e-16 -1 264.242 709.0455)" style="fill:#CAD4FD;" width="99.658" height="110.081"/>
				
					<rect x="74.242" y="296.128" transform="matrix(-1 -8.638742e-07 8.638742e-07 -1 264.2417 595.6105)" style="fill:#95AAEA;" width="115.758" height="3.354"/>
				
					<rect x="87.394" y="304.971" transform="matrix(-1 -1.117891e-06 1.117891e-06 -1 264.2416 635.5521)" style="fill:none;stroke:#95AAEA;stroke-width:0.8504;stroke-miterlimit:10;" width="89.454" height="25.61"/>
				
					<rect x="87.394" y="336.353" transform="matrix(-1 -1.117889e-06 1.117889e-06 -1 264.2415 698.3151)" style="fill:none;stroke:#95AAEA;stroke-width:0.8504;stroke-miterlimit:10;" width="89.454" height="25.61"/>
				
					<rect x="87.394" y="367.734" transform="matrix(-1 -1.117891e-06 1.117891e-06 -1 264.2414 761.0779)" style="fill:none;stroke:#95AAEA;stroke-width:0.8504;stroke-miterlimit:10;" width="89.454" height="25.61"/>
				
					<rect x="120.396" y="305.077" transform="matrix(-1 -4.264410e-06 4.264410e-06 -1 264.2406 614.1823)" style="fill:none;stroke:#95AAEA;stroke-width:0.8504;stroke-miterlimit:10;" width="23.45" height="4.028"/>
				
					<rect x="120.396" y="336.458" transform="matrix(-1 -1.224647e-16 1.224647e-16 -1 264.2419 676.9447)" style="fill:none;stroke:#95AAEA;stroke-width:0.8504;stroke-miterlimit:10;" width="23.45" height="4.028"/>
				
					<rect x="120.396" y="367.84" transform="matrix(-1 -4.264410e-06 4.264410e-06 -1 264.2403 739.7083)" style="fill:none;stroke:#95AAEA;stroke-width:0.8504;stroke-miterlimit:10;" width="23.45" height="4.028"/>
				
					<line style="opacity:0.5;fill:none;stroke:#272532;stroke-width:0.8504;stroke-linecap:round;stroke-linejoin:round;stroke-miterlimit:10;" x1="132.882" y1="290.698" x2="107.91" y2="290.698"/>
			</g>
		</g>
	</g>
</g>
<g id="OBJECTS">
	<g>
		<g>
			
				<rect x="190.437" y="51.598" transform="matrix(-1.836970e-16 1 -1 -1.836970e-16 465.6667 -96.9945)" style="fill:none;stroke:#95AAEA;stroke-width:0.8504;stroke-miterlimit:10;" width="181.787" height="265.477"/>
			<rect x="155.672" y="100.522" style="fill:#748CD6;" width="251.318" height="167.628"/>
			<g>
				
					<rect x="301.584" y="111.703" transform="matrix(-1.836970e-16 1 -1 -1.836970e-16 485.5042 -178.2881)" style="fill:#95AAEA;" width="60.624" height="83.81"/>
				<rect x="292.579" y="125.67" style="fill:#D6E1FE;" width="78.634" height="55.876"/>
				<rect x="299.33" y="131.988" style="fill:#B3C2FC;" width="66.409" height="8.967"/>
				<rect x="299.33" y="145.5" style="fill:#B3C2FC;" width="7.21" height="5.758"/>
				<rect x="309.197" y="145.5" style="fill:#C2CEFD;" width="7.21" height="5.758"/>
				<rect x="319.063" y="145.5" style="fill:#B3C2FC;" width="7.21" height="5.758"/>
				<rect x="328.93" y="145.5" style="fill:#B3C2FC;" width="7.21" height="5.758"/>
				<rect x="338.796" y="145.5" style="fill:#C2CEFD;" width="7.21" height="5.758"/>
				<rect x="348.663" y="145.5" style="fill:#B3C2FC;" width="7.21" height="5.758"/>
				<rect x="358.529" y="145.5" style="fill:#B3C2FC;" width="7.21" height="5.758"/>
				<rect x="299.33" y="153.758" style="fill:#B3C2FC;" width="7.21" height="5.758"/>
				<rect x="309.197" y="153.758" style="fill:#B3C2FC;" width="7.21" height="5.758"/>
				<rect x="319.063" y="153.758" style="fill:#C2CEFD;" width="7.21" height="5.758"/>
				<rect x="328.93" y="153.758" style="fill:#B3C2FC;" width="7.21" height="5.758"/>
				<rect x="338.796" y="153.758" style="fill:#B3C2FC;" width="7.21" height="5.758"/>
				<rect x="348.663" y="153.758" style="fill:#B3C2FC;" width="7.21" height="5.758"/>
				<rect x="358.529" y="153.758" style="fill:#C2CEFD;" width="7.21" height="5.758"/>
				<rect x="299.33" y="162.017" style="fill:#B3C2FC;" width="7.21" height="5.758"/>
				<rect x="309.197" y="162.017" style="fill:#B3C2FC;" width="7.21" height="5.758"/>
				<rect x="319.063" y="162.017" style="fill:#C2CEFD;" width="7.21" height="5.758"/>
				<rect x="328.93" y="162.017" style="fill:#B3C2FC;" width="7.21" height="5.758"/>
				<rect x="338.796" y="162.017" style="fill:#B3C2FC;" width="7.21" height="5.758"/>
				<rect x="348.663" y="162.017" style="fill:#B3C2FC;" width="7.21" height="5.758"/>
				<rect x="358.529" y="162.017" style="fill:#B3C2FC;" width="7.21" height="5.758"/>
				<rect x="299.33" y="170.275" style="fill:#C2CEFD;" width="7.21" height="5.758"/>
				<rect x="309.197" y="170.275" style="fill:#B3C2FC;" width="7.21" height="5.758"/>
				<rect x="319.063" y="170.275" style="fill:#B3C2FC;" width="7.21" height="5.758"/>
				<rect x="328.93" y="170.275" style="fill:#B3C2FC;" width="7.21" height="5.758"/>
				<rect x="338.796" y="170.275" style="fill:#B3C2FC;" width="7.21" height="5.758"/>
				<rect x="348.663" y="170.275" style="fill:#C2CEFD;" width="7.21" height="5.758"/>
				<rect x="358.529" y="170.275" style="fill:#B3C2FC;" width="7.21" height="5.758"/>
			</g>
			<g>
				<defs>
					<rect id="SVGID_4_" x="155.672" y="100.522" width="251.318" height="167.628"/>
				</defs>
				<clipPath id="SVGID_00000168805827762571912790000011635632772930351500_">
					<use xlink:href="#SVGID_4_"  style="overflow:visible;"/>
				</clipPath>
				<g style="clip-path:url(#SVGID_00000168805827762571912790000011635632772930351500_);">
					<g>
						<g>
							<rect x="164.349" y="109.913" style="fill:#95AAEA;" width="7.249" height="37.261"/>
							<rect x="166.239" y="116.274" style="fill:#AABBEE;" width="3.468" height="25.401"/>
							
								<line style="fill:none;stroke:#B3C2FC;stroke-width:0.8504;stroke-miterlimit:10;" x1="164.349" y1="114.212" x2="171.598" y2="114.212"/>
							
								<line style="fill:none;stroke:#B3C2FC;stroke-width:0.8504;stroke-miterlimit:10;" x1="164.349" y1="143.362" x2="171.598" y2="143.362"/>
						</g>
						<g>
							<rect x="172.785" y="109.913" style="fill:#95AAEA;" width="7.249" height="37.261"/>
							<rect x="174.675" y="116.274" style="fill:#AABBEE;" width="3.468" height="25.401"/>
							
								<line style="fill:none;stroke:#B3C2FC;stroke-width:0.8504;stroke-miterlimit:10;" x1="172.785" y1="114.212" x2="180.034" y2="114.212"/>
							
								<line style="fill:none;stroke:#B3C2FC;stroke-width:0.8504;stroke-miterlimit:10;" x1="172.785" y1="143.362" x2="180.034" y2="143.362"/>
						</g>
						<g>
							<rect x="181.221" y="109.913" style="fill:#95AAEA;" width="7.249" height="37.261"/>
							<rect x="183.111" y="116.274" style="fill:#AABBEE;" width="3.468" height="25.401"/>
							
								<line style="fill:none;stroke:#B3C2FC;stroke-width:0.8504;stroke-miterlimit:10;" x1="181.221" y1="114.212" x2="188.469" y2="114.212"/>
							
								<line style="fill:none;stroke:#B3C2FC;stroke-width:0.8504;stroke-miterlimit:10;" x1="181.221" y1="143.362" x2="188.469" y2="143.362"/>
						</g>
						<g>
							<rect x="189.657" y="109.913" style="fill:#95AAEA;" width="7.249" height="37.261"/>
							<rect x="191.547" y="116.274" style="fill:#AABBEE;" width="3.468" height="25.401"/>
							
								<line style="fill:none;stroke:#B3C2FC;stroke-width:0.8504;stroke-miterlimit:10;" x1="189.657" y1="114.212" x2="196.905" y2="114.212"/>
							
								<line style="fill:none;stroke:#B3C2FC;stroke-width:0.8504;stroke-miterlimit:10;" x1="189.657" y1="143.362" x2="196.905" y2="143.362"/>
						</g>
						<g>
							
								<rect x="201.218" y="109.585" transform="matrix(0.9715 -0.237 0.237 0.9715 -24.5521 52.2036)" style="fill:#95AAEA;" width="7.249" height="37.261"/>
							
								<rect x="203.21" y="115.933" transform="matrix(0.9715 -0.237 0.237 0.9715 -24.6486 52.2405)" style="fill:#AABBEE;" width="3.468" height="25.401"/>
							
								<line style="fill:none;stroke:#B3C2FC;stroke-width:0.8504;stroke-miterlimit:10;" x1="197.924" y1="115.151" x2="204.966" y2="113.433"/>
							
								<line style="fill:none;stroke:#B3C2FC;stroke-width:0.8504;stroke-miterlimit:10;" x1="204.833" y1="143.471" x2="211.875" y2="141.753"/>
						</g>
						<g>
							
								<rect x="152.96" y="109.585" transform="matrix(-0.9715 -0.237 0.237 -0.9715 278.3188 289.8896)" style="fill:#95AAEA;" width="7.249" height="37.261"/>
							
								<rect x="154.748" y="115.933" transform="matrix(-0.9715 -0.237 0.237 -0.9715 278.0163 290.692)" style="fill:#AABBEE;" width="3.468" height="25.401"/>
							
								<line style="fill:none;stroke:#B3C2FC;stroke-width:0.8504;stroke-miterlimit:10;" x1="163.502" y1="115.151" x2="156.46" y2="113.433"/>
							
								<line style="fill:none;stroke:#B3C2FC;stroke-width:0.8504;stroke-miterlimit:10;" x1="156.593" y1="143.471" x2="149.551" y2="141.753"/>
						</g>
						<rect x="143.146" y="147.174" style="fill:#95AAEA;" width="75.079" height="1.718"/>
						<rect x="145.583" y="148.892" style="fill:#95AAEA;" width="2.999" height="8.061"/>
						<rect x="211.875" y="148.892" style="fill:#95AAEA;" width="2.999" height="8.061"/>
					</g>
					<g>
						<g>
							<rect x="147.477" y="160.564" style="fill:#95AAEA;" width="7.249" height="37.261"/>
							<rect x="149.368" y="166.925" style="fill:#AABBEE;" width="3.468" height="25.401"/>
							
								<line style="fill:none;stroke:#B3C2FC;stroke-width:0.8504;stroke-miterlimit:10;" x1="147.477" y1="164.863" x2="154.726" y2="164.863"/>
							
								<line style="fill:none;stroke:#B3C2FC;stroke-width:0.8504;stroke-miterlimit:10;" x1="147.477" y1="194.014" x2="154.726" y2="194.014"/>
						</g>
						<g>
							<rect x="155.913" y="160.564" style="fill:#95AAEA;" width="7.249" height="37.261"/>
							<rect x="157.804" y="166.925" style="fill:#AABBEE;" width="3.468" height="25.401"/>
							
								<line style="fill:none;stroke:#B3C2FC;stroke-width:0.8504;stroke-miterlimit:10;" x1="155.913" y1="164.863" x2="163.162" y2="164.863"/>
							
								<line style="fill:none;stroke:#B3C2FC;stroke-width:0.8504;stroke-miterlimit:10;" x1="155.913" y1="194.014" x2="163.162" y2="194.014"/>
						</g>
						<g>
							<rect x="164.349" y="160.564" style="fill:#95AAEA;" width="7.249" height="37.261"/>
							<rect x="166.239" y="166.925" style="fill:#AABBEE;" width="3.468" height="25.401"/>
							
								<line style="fill:none;stroke:#B3C2FC;stroke-width:0.8504;stroke-miterlimit:10;" x1="164.349" y1="164.863" x2="171.598" y2="164.863"/>
							
								<line style="fill:none;stroke:#B3C2FC;stroke-width:0.8504;stroke-miterlimit:10;" x1="164.349" y1="194.014" x2="171.598" y2="194.014"/>
						</g>
						<g>
							<rect x="172.785" y="160.564" style="fill:#95AAEA;" width="7.249" height="37.261"/>
							<rect x="174.675" y="166.925" style="fill:#AABBEE;" width="3.468" height="25.401"/>
							
								<line style="fill:none;stroke:#B3C2FC;stroke-width:0.8504;stroke-miterlimit:10;" x1="172.785" y1="164.863" x2="180.034" y2="164.863"/>
							
								<line style="fill:none;stroke:#B3C2FC;stroke-width:0.8504;stroke-miterlimit:10;" x1="172.785" y1="194.014" x2="180.034" y2="194.014"/>
						</g>
						<g>
							<rect x="181.221" y="160.564" style="fill:#95AAEA;" width="7.249" height="37.261"/>
							<rect x="183.111" y="166.925" style="fill:#AABBEE;" width="3.468" height="25.401"/>
							
								<line style="fill:none;stroke:#B3C2FC;stroke-width:0.8504;stroke-miterlimit:10;" x1="181.221" y1="164.863" x2="188.469" y2="164.863"/>
							
								<line style="fill:none;stroke:#B3C2FC;stroke-width:0.8504;stroke-miterlimit:10;" x1="181.221" y1="194.014" x2="188.469" y2="194.014"/>
						</g>
						<g>
							<rect x="189.657" y="160.564" style="fill:#95AAEA;" width="7.249" height="37.261"/>
							<rect x="191.547" y="166.925" style="fill:#AABBEE;" width="3.468" height="25.401"/>
							
								<line style="fill:none;stroke:#B3C2FC;stroke-width:0.8504;stroke-miterlimit:10;" x1="189.657" y1="164.863" x2="196.905" y2="164.863"/>
							
								<line style="fill:none;stroke:#B3C2FC;stroke-width:0.8504;stroke-miterlimit:10;" x1="189.657" y1="194.014" x2="196.905" y2="194.014"/>
						</g>
						<g>
							
								<rect x="201.218" y="160.236" transform="matrix(0.9715 -0.237 0.237 0.9715 -36.5571 53.6469)" style="fill:#95AAEA;" width="7.249" height="37.261"/>
							
								<rect x="203.21" y="166.585" transform="matrix(0.9715 -0.237 0.237 0.9715 -36.6538 53.6837)" style="fill:#AABBEE;" width="3.468" height="25.401"/>
							
								<line style="fill:none;stroke:#B3C2FC;stroke-width:0.8504;stroke-miterlimit:10;" x1="197.924" y1="165.802" x2="204.966" y2="164.084"/>
							
								<line style="fill:none;stroke:#B3C2FC;stroke-width:0.8504;stroke-miterlimit:10;" x1="204.833" y1="194.122" x2="211.875" y2="192.404"/>
						</g>
						<rect x="143.146" y="197.825" style="fill:#95AAEA;" width="75.079" height="1.718"/>
						<rect x="145.583" y="199.544" style="fill:#95AAEA;" width="2.999" height="8.061"/>
						<rect x="211.875" y="199.544" style="fill:#95AAEA;" width="2.999" height="8.061"/>
					</g>
				</g>
				<g style="clip-path:url(#SVGID_00000168805827762571912790000011635632772930351500_);">
					<path style="fill:#EDF3FE;" d="M200.928,211.921C186,225.378,187.695,295.84,187.695,295.84l95.572-2.17
						c0,0-3.403-68.091-15.606-81.748"/>
					<path style="fill:#5E1A1E;" d="M233.266,156.595c-8.687,1.566-12.076,5.478-12.641,10.131s-8.021,7.911-5.648,15.997
						c2.372,8.086-16.155,11.215-6.1,26.765c10.054,15.55,44.082,8.76,48.435-0.604c3.983-8.567,1.934-16.493-1.779-20.673
						c-3.714-4.18,4.176-19.381-4.665-21.485"/>
					<path style="fill:#EBBC0E;" d="M227.397,287.044c-12.203-0.21-22.815-1.768-23.579-3.525
						c-0.251-0.578,15.035-17.23-2.89-71.598c5.14-4.96,9.075-4.772,14.27-6.918c11.48-4.005,19.865-4.811,34.173-1.948
						c6.278,1.603,10.065,3.299,14.902,6.936c-2.663,10.014-2.862,19.398-4.044,33.397c-8.036,17.722-3.045,28.078-2.002,38.696"/>
					<path style="fill:none;stroke:#C7880C;stroke-width:0.8504;stroke-miterlimit:10;" d="M221.065,203.177l3.41,6.072
						c3.543,1.436,17.809,1.723,21.064-2.059c1.46-4.585,1.46-4.585,1.46-4.585"/>
					<path style="fill:#EF8E64;" d="M222.345,202.829c0.786,1.449,2.327,3.503,3.312,5.243c6.079,1.14,12.608,0.476,18.668-1.558
						c0.536-1.718,0.894-2.877,1.232-4.194C238.37,201.164,230.101,200.503,222.345,202.829z"/>
					<path style="fill:#EF8E64;" d="M226.252,182.762c0.05,1.846,0.269,21.202,0.269,21.202l15.695-0.119l-0.112-21.082
						L226.252,182.762z"/>
					<path style="fill:#EF8E64;" d="M223.988,174.397c-4.401-3.112-3.637,12.204,3.463,8.853"/>
					<path style="fill:#EF8E64;" d="M225.756,169.694c-1.265,10.385,0.554,24.386,11.387,25.978
						c13.305,1.955,14.354-14.88,14.813-24.427c0.458-9.546-14.885-13.523-19.763-12.009
						C227.315,160.75,225.756,169.694,225.756,169.694z"/>
					<path style="fill:#451316;" d="M240.094,180.648c-0.098,0.708-0.581,1.238-1.08,1.185c-0.498-0.053-0.823-0.67-0.725-1.378
						c0.098-0.708,0.581-1.238,1.08-1.185C239.868,179.323,240.192,179.94,240.094,180.648z"/>
					<path style="fill:#451316;" d="M248.238,181.537c-0.098,0.708-0.581,1.238-1.08,1.185c-0.499-0.053-0.823-0.67-0.725-1.378
						c0.098-0.708,0.581-1.238,1.08-1.185C248.011,180.212,248.335,180.829,248.238,181.537z"/>
					<path style="fill:none;stroke:#944524;stroke-width:0.8504;stroke-miterlimit:10;" d="M242.907,186.796
						c2.237-0.407,2.109-2.059,0.34-2.216"/>
					<path style="fill:none;stroke:#944524;stroke-width:0.8504;stroke-miterlimit:10;" d="M237.965,188.693
						c0,0,2.322,1.396,5.01,0.627C241.549,191.362,238.694,191.435,237.965,188.693z"/>
					<path style="fill:none;stroke:#944524;stroke-width:0.8504;stroke-miterlimit:10;" d="M238.218,176.436
						c0,0,1.648-0.811,2.523-0.578"/>
					
						<line style="fill:none;stroke:#944524;stroke-width:0.8504;stroke-miterlimit:10;" x1="247.418" y1="176.492" x2="249.649" y2="177.775"/>
					<path style="fill:none;stroke:#944524;stroke-width:0.8504;stroke-miterlimit:10;" d="M230.369,192.286
						c0,0,4.844,6.472,12.649,3.091"/>
					<path style="fill:#5E1A1E;" d="M225.193,177.423c0,0,0.198,6.299,3.227,8.744c-0.452-3.132,0.091-4.306,0.811-7.971
						c0.643-2.16-2.71-8.314,10.828-5.666c3.452,0.675,4.333,2.13,8.642,3.05c1.489,0.318,3.305,0.471,5.451,0.188
						c2.041-5.419,0.646-11.3-3.251-14.936c-2.199-2.052-6.031-0.98-10.948-3.018C229.007,153.275,219.939,161.377,225.193,177.423z
						"/>
					<path style="fill:none;stroke:#451316;stroke-width:0.8504;stroke-miterlimit:10;" d="M244.22,162.162
						c0,0,3.06,4.252,1.23,9.127"/>
					<path style="fill:none;stroke:#451316;stroke-width:0.8504;stroke-miterlimit:10;" d="M248.466,161.883
						c0,0,3.703,3.825,0.013,9.487"/>
					<path style="fill:none;stroke:#451316;stroke-width:0.8504;stroke-miterlimit:10;" d="M237.169,161.536
						c0,0-3.262,3.36-2.493,7.592"/>
					<path style="fill:none;stroke:#451316;stroke-width:0.8504;stroke-miterlimit:10;" d="M235.355,157.987
						c0,0-5.098,2.02-5.629,9.559"/>
					<path style="fill:none;stroke:#451316;stroke-width:0.8504;stroke-miterlimit:10;" d="M229.007,159.141
						c0,0-5.839,7.847-4.029,14.26"/>
					<path style="fill:none;stroke:#451316;stroke-width:0.8504;stroke-miterlimit:10;" d="M241.061,160.285
						c0,0,1.6,4.7,0.743,6.278"/>
					<path style="fill:none;stroke:#43706A;stroke-width:0.8504;stroke-miterlimit:10;" d="M204.811,281.508"/>
					<path style="fill:none;stroke:#43706A;stroke-width:0.8504;stroke-miterlimit:10;" d="M258.502,279.21"/>
					<path style="fill:none;stroke:#43706A;stroke-width:0.8504;stroke-miterlimit:10;" d="M205.098,287.542"/>
					<path style="fill:none;stroke:#43706A;stroke-width:0.8504;stroke-miterlimit:10;" d="M259.301,285.848"/>
					
						<line style="fill:none;stroke:#944524;stroke-width:0.8504;stroke-miterlimit:10;" x1="242.595" y1="199.987" x2="242.595" y2="204.276"/>
					
						<line style="fill:none;stroke:#944524;stroke-width:0.8504;stroke-miterlimit:10;" x1="226.52" y1="199.987" x2="226.52" y2="204.276"/>
					<path style="fill:#EDF3FE;" d="M219.055,203.666l20.954,43.059l-0.885,89.22l-40.976,4.634c0,0,2.437-51.784,5.538-66.977
						c3.101-15.193-2.758-61.68-2.758-61.68S203.634,207.849,219.055,203.666z"/>
					<path style="fill:none;stroke:#CED7E5;stroke-width:0.8504;stroke-miterlimit:10;" d="M237.025,252.365
						c0,1.199-0.573,2.17-1.28,2.17c-0.707,0-1.28-0.971-1.28-2.17s0.573-2.17,1.28-2.17
						C236.452,250.195,237.025,251.166,237.025,252.365z"/>
					<path style="fill:none;stroke:#CED7E5;stroke-width:0.8504;stroke-miterlimit:10;" d="M237.025,274.102
						c0,1.199-0.573,2.17-1.28,2.17c-0.707,0-1.28-0.972-1.28-2.17c0-1.198,0.573-2.17,1.28-2.17
						C236.452,271.932,237.025,272.904,237.025,274.102z"/>
					<path style="fill:none;stroke:#CED7E5;stroke-width:0.8504;stroke-miterlimit:10;" d="M237.025,295.84
						c0,1.198-0.573,2.17-1.28,2.17c-0.707,0-1.28-0.972-1.28-2.17c0-1.198,0.573-2.17,1.28-2.17
						C236.452,293.669,237.025,294.641,237.025,295.84z"/>
					<path style="fill:none;stroke:#CED7E5;stroke-width:0.8504;stroke-miterlimit:10;" d="M237.025,317.577
						c0,1.199-0.573,2.17-1.28,2.17c-0.707,0-1.28-0.972-1.28-2.17c0-1.198,0.573-2.17,1.28-2.17
						C236.452,315.407,237.025,316.379,237.025,317.577z"/>
					<path style="fill:#EDF3FE;" d="M251.304,203.666l-12.105,43.059v89.22l31.242,2.479c0,0-2.437-49.629-5.538-64.822
						c-3.101-15.193,2.758-61.68,2.758-61.68S266.724,207.849,251.304,203.666z"/>
					<polyline style="fill:none;stroke:#CED7E5;stroke-width:0.8504;stroke-miterlimit:10;" points="214.11,205.426 
						216.147,219.198 223.968,219.198 218.935,224.389 239.124,246.724 254.116,222.521 250.08,218.755 255.079,217.482 
						257.411,205.784 					"/>
					<g>
						
							<rect x="244.839" y="230.678" style="fill:#FFFFFF;stroke:#CED7E5;stroke-width:0.8504;stroke-miterlimit:10;" width="14.255" height="9.46"/>
						<rect x="246.342" y="232.559" style="fill:#FFD300;" width="5.139" height="5.697"/>
						
							<line style="fill:none;stroke:#CCCCCC;stroke-width:0.8504;stroke-miterlimit:10;" x1="252.233" y1="233.5" x2="257.869" y2="233.5"/>
						
							<line style="fill:none;stroke:#CCCCCC;stroke-width:0.8504;stroke-miterlimit:10;" x1="252.233" y1="235.193" x2="257.869" y2="235.193"/>
						
							<line style="fill:none;stroke:#CCCCCC;stroke-width:0.8504;stroke-miterlimit:10;" x1="252.233" y1="236.886" x2="257.869" y2="236.886"/>
						<g>
							<defs>
								<rect id="SVGID_5_" x="246.342" y="232.559" width="5.139" height="5.697"/>
							</defs>
							<use xlink:href="#SVGID_5_"  style="overflow:visible;fill:#A1BC31;"/>
							<clipPath id="SVGID_00000090268169994510069700000017700805553432596914_">
								<use xlink:href="#SVGID_5_"  style="overflow:visible;"/>
							</clipPath>
						</g>
						<rect x="250.996" y="229.146" style="fill:#4154A5;" width="1.6" height="2.58"/>
						<rect x="250.669" y="226.787" style="fill:#CCCCCC;" width="2.218" height="3.286"/>
						
							<line style="fill:none;stroke:#999999;stroke-width:0.8504;stroke-miterlimit:10;" x1="250.619" y1="228.597" x2="252.946" y2="228.597"/>
					</g>
					
						<line style="fill:none;stroke:#CED7E5;stroke-width:0.8504;stroke-miterlimit:10;" x1="239.124" y1="246.724" x2="239.124" y2="335.944"/>
					<path style="fill:none;stroke:#CED7E5;stroke-width:0.8504;stroke-miterlimit:10;" d="M213.49,242.272h11.993
						c0,0,2.959,15.472-6.941,15.472C211.577,257.744,213.49,242.272,213.49,242.272z"/>
					<path style="fill:none;stroke:#CED7E5;stroke-width:0.8504;stroke-miterlimit:10;" d="M204.019,303.899h21.775
						c0,0,4.77,18.992-13.543,18.65C200.141,322.208,204.019,303.899,204.019,303.899z"/>
					<path style="fill:none;stroke:#CED7E5;stroke-width:0.8504;stroke-miterlimit:10;" d="M250.321,303.899h14.022
						c0,0,3.048,17.991-7.011,17.818C247.273,321.543,250.321,303.899,250.321,303.899z"/>
					
						<line style="fill:none;stroke:#CED7E5;stroke-width:0.8504;stroke-miterlimit:10;" x1="204.019" y1="307.144" x2="226.275" y2="307.144"/>
					
						<line style="fill:none;stroke:#CED7E5;stroke-width:0.8504;stroke-miterlimit:10;" x1="249.968" y1="307.144" x2="264.896" y2="307.144"/>
					
						<line style="fill:none;stroke:#CED7E5;stroke-width:0.8504;stroke-miterlimit:10;" x1="213.304" y1="244.762" x2="226.061" y2="244.733"/>
					<path style="fill:none;stroke:#451316;stroke-width:0.8504;stroke-miterlimit:10;" d="M218.366,180.351
						c0,0-0.791,1.195,0,5.262c0.791,4.067-3.902,5.44-3.758,8.707"/>
					<path style="fill:none;stroke:#451316;stroke-width:0.8504;stroke-miterlimit:10;" d="M219.655,191.487
						c-2.532,4.745-4.058,7.801-3.125,9.831"/>
					<path style="fill:none;stroke:#451316;stroke-width:0.8504;stroke-miterlimit:10;" d="M212.717,192.286
						c-2.146,3.833-2.146,7.519-1.13,9.065"/>
					<path style="fill:none;stroke:#451316;stroke-width:0.8504;stroke-miterlimit:10;" d="M222.132,187.336c0,0,1.733,3.7,0,7.88"
						/>
					<path style="fill:none;stroke:#451316;stroke-width:0.8504;stroke-miterlimit:10;" d="M251.966,186.167
						c0,0,1.307,6.467,2.776,8.154c1.469,1.686,0.346,6.431,0.346,6.431"/>
					<path style="fill:none;stroke:#451316;stroke-width:0.8504;stroke-miterlimit:10;" d="M250.84,192.286c0,0-2.346,3.973,0,6.319
						"/>
					<polyline style="fill:none;stroke:#CED7E5;stroke-width:0.8504;stroke-miterlimit:10;" points="201.135,294.623 
						205.863,266.725 203.499,230.436 					"/>
					<polyline style="fill:none;stroke:#CED7E5;stroke-width:0.8504;stroke-miterlimit:10;" points="267.495,294.623 
						263.999,261.297 265.747,230.436 					"/>
				</g>
				<g style="clip-path:url(#SVGID_00000168805827762571912790000011635632772930351500_);">
					<rect x="273.95" y="209.975" style="fill:#95AAEA;" width="90.819" height="52.179"/>
					<rect x="273.95" y="209.975" style="fill:#95AAEA;" width="90.819" height="52.179"/>
					<rect x="273.95" y="209.975" style="fill:#D6E1FE;" width="3.389" height="52.179"/>
					<rect x="312.239" y="232.135" style="fill:#95AAEA;" width="23.053" height="37.75"/>
					<rect x="312.239" y="232.135" style="fill:#B3C2FC;" width="1.719" height="37.75"/>
					<polyline style="fill:none;stroke:#5971BA;stroke-width:0.8504;stroke-miterlimit:10;" points="312.239,232.135 
						335.292,232.135 335.292,262.155 					"/>
					<path style="fill:none;stroke:#5971BA;stroke-width:0.8504;stroke-miterlimit:10;" d="M306.485,262.155v-11.088
						c0-1.965-1.593-3.559-3.558-3.559h-8.642c-1.965,0-3.559,1.593-3.559,3.559v11.088"/>
					
						<rect x="294.322" y="251.01" style="fill:none;stroke:#5971BA;stroke-width:0.8504;stroke-miterlimit:10;" width="2.994" height="2.994"/>
					
						<rect x="299.49" y="251.01" style="fill:none;stroke:#5971BA;stroke-width:0.8504;stroke-miterlimit:10;" width="2.994" height="2.994"/>
					
						<line style="fill:none;stroke:#5971BA;stroke-width:0.8504;stroke-miterlimit:10;" x1="285.134" y1="216.16" x2="357.999" y2="216.16"/>
					
						<line style="fill:none;stroke:#5971BA;stroke-width:0.8504;stroke-miterlimit:10;" x1="285.134" y1="219.719" x2="357.999" y2="219.719"/>
					
						<line style="fill:none;stroke:#5971BA;stroke-width:0.8504;stroke-miterlimit:10;" x1="285.134" y1="223.277" x2="357.999" y2="223.277"/>
					
						<line style="fill:none;stroke:#5971BA;stroke-width:0.8504;stroke-miterlimit:10;" x1="285.134" y1="226.835" x2="357.999" y2="226.835"/>
					
						<line style="fill:none;stroke:#5971BA;stroke-width:0.8504;stroke-miterlimit:10;" x1="295.819" y1="253.947" x2="295.819" y2="270.805"/>
					
						<line style="fill:none;stroke:#5971BA;stroke-width:0.8504;stroke-miterlimit:10;" x1="300.988" y1="254.004" x2="300.988" y2="270.805"/>
				</g>
			</g>
		</g>
		<g>
			<path style="opacity:0.2;fill:#3B749B;" d="M574.563,451.323c-0.526,0-1.045,0.002-1.567,0.003
				c-22.57-0.436-50.058-0.692-79.721-0.692c-76.765,0-138.996,1.714-138.996,3.829s62.231,3.829,138.996,3.829
				c10.306,0,20.346-0.031,30.013-0.09c11.851,1.01,30.404,1.661,51.275,1.661c35.787,0,64.797-1.912,64.797-4.27
				S610.35,451.323,574.563,451.323z"/>
			<g>
				<path style="fill:#FFFFFF;" d="M500.579,169.743h3.523c10.036,0,18.2,8.164,18.2,18.2v32.317c0,10.036-8.165,18.2-18.2,18.2
					h-3.523v-6.657h3.523c6.365,0,11.544-5.179,11.544-11.544v-32.317c0-6.365-5.179-11.543-11.544-11.543h-3.523V169.743z"/>
				<path style="fill:#95AAEA;" d="M457.65,105.164L457.65,105.164c-3.826,0-18.36,0-22.186,0h0
					c-25.334,0-45.871,20.537-45.871,45.871v191.728l-22.311,21.586v91.142h44.497h69.556h22.186V151.035
					C503.521,125.701,482.984,105.164,457.65,105.164z"/>
				<path style="fill:none;stroke:#5971BA;stroke-width:0.8504;stroke-miterlimit:10;" d="M399.787,455.492V151.035
					c0-25.334,20.537-45.871,45.871-45.871h0c25.334,0,45.871,20.537,45.871,45.871v304.457"/>
				<path style="fill:#B3C2FC;" d="M503.521,455.492h-91.742V151.035c0-25.334,20.537-45.871,45.871-45.871h0
					c25.334,0,45.871,20.537,45.871,45.871V455.492z"/>
				<path style="fill:none;stroke:#5971BA;stroke-width:0.8504;stroke-miterlimit:10;" d="M445.658,251.546L445.658,251.546
					c-13.495,0-24.435-10.94-24.435-24.434v-62.66c0-13.495,10.94-24.434,24.434-24.434h0c13.495,0,24.434,10.94,24.434,24.434
					v62.66C470.092,240.607,459.152,251.546,445.658,251.546z"/>
				<path style="fill:#425CAD;" d="M450.005,251.546L450.005,251.546c-13.495,0-24.435-10.94-24.435-24.434v-62.66
					c0-13.495,10.94-24.434,24.434-24.434h0c13.495,0,24.434,10.94,24.434,24.434v62.66
					C474.439,240.607,463.5,251.546,450.005,251.546z"/>
				<path style="fill:#95AAEA;" d="M494.077,292.995h-38.975c-6.954,0-12.592-5.638-12.592-12.592V93.921h51.567V292.995z"/>
				<path style="fill:#B3C2FC;" d="M498.874,292.995h-26.383c-6.954,0-12.592-5.638-12.592-12.592V93.921h51.567v186.481
					C511.466,287.357,505.828,292.995,498.874,292.995z"/>
				<line style="fill:#FFFFFF;" x1="474.439" y1="93.921" x2="474.439" y2="277.705"/>
				<rect x="472.775" y="93.921" style="fill:#1D1D1B;" width="3.329" height="183.783"/>
				<line style="fill:#FFFFFF;" x1="495.943" y1="93.921" x2="495.943" y2="277.705"/>
				<rect x="494.278" y="93.921" style="fill:#1D1D1B;" width="3.329" height="183.783"/>
				<polygon style="fill:#95AAEA;" points="557.702,147.288 516.828,147.288 503.521,93.921 557.702,93.921 				"/>
				<rect x="530.611" y="93.921" style="fill:#B3C2FC;" width="40.873" height="53.366"/>
				<path style="fill:#95AAEA;" d="M582.221,93.921H442.51V62.367c0-4.429,3.591-8.02,8.02-8.02h123.671
					c4.429,0,8.02,3.591,8.02,8.02V93.921z"/>
				<path style="fill:#B3C2FC;" d="M582.221,93.921h-83.347V62.367c0-4.429,3.591-8.02,8.02-8.02h67.307
					c4.429,0,8.02,3.591,8.02,8.02V93.921z"/>
				<rect x="469.942" y="166.625" style="fill:#D6E1FE;" width="79.3" height="29.981"/>
				<rect x="495.943" y="166.625" style="fill:#95AAEA;" width="53.299" height="29.981"/>
				<rect x="459.899" y="214.902" style="fill:#95AAEA;" width="125.77" height="7.195"/>
				<rect x="510.638" y="214.902" style="fill:#B3C2FC;" width="75.03" height="7.195"/>
				<rect x="505.619" y="171.572" style="fill:#B3C2FC;" width="34.928" height="20.087"/>
				<rect x="519.411" y="181.616" style="fill:#D6E1FE;" width="34.928" height="10.044"/>
				<polygon style="fill:#95AAEA;" points="505.619,171.572 519.411,181.616 554.339,181.616 540.547,171.572 				"/>
				<path style="fill:none;stroke:#5971BA;stroke-width:0.8504;stroke-miterlimit:10;" d="M450.455,243.526L450.455,243.526
					c-2.649,0-4.797-2.148-4.797-4.797v-69.706c0-2.649,2.148-4.797,4.797-4.797l0,0c2.649,0,4.797,2.148,4.797,4.797v69.706
					C455.251,241.379,453.104,243.526,450.455,243.526z"/>
				<path style="fill:#FFFFFF;" d="M451.045,238.46h-3.523c-10.036,0-18.2-8.164-18.2-18.2v-32.317c0-10.036,8.165-18.2,18.2-18.2
					h3.523c0.249,0.697,0.516,1.689,0.569,2.9c0.071,1.636-0.281,2.95-0.569,3.757c-1.174,0-2.348,0-3.523,0
					c-6.365,0-11.544,5.179-11.544,11.544v32.317c0,6.365,5.179,11.543,11.544,11.543h3.523c0.246,0.678,0.502,1.617,0.569,2.754
					C451.714,236.261,451.343,237.633,451.045,238.46z"/>
				<polyline style="fill:none;stroke:#5971BA;stroke-width:0.8504;stroke-miterlimit:10;" points="505.619,171.572 
					541.896,171.572 549.242,177.904 				"/>
				
					<line style="fill:none;stroke:#5971BA;stroke-width:0.8504;stroke-miterlimit:10;" x1="442.51" y1="86.501" x2="582.221" y2="86.501"/>
				
					<line style="fill:none;stroke:#5971BA;stroke-width:0.8504;stroke-miterlimit:10;" x1="515.508" y1="141.991" x2="571.485" y2="141.991"/>
				
					<line style="fill:none;stroke:#5971BA;stroke-width:0.8504;stroke-miterlimit:10;" x1="489.28" y1="93.921" x2="575.025" y2="93.921"/>
				
					<rect x="474.439" y="171.572" style="fill:none;stroke:#5971BA;stroke-width:0.8504;stroke-miterlimit:10;" width="16.49" height="20.087"/>
				
					<line style="fill:none;stroke:#5971BA;stroke-width:0.8504;stroke-miterlimit:10;" x1="459.899" y1="218.5" x2="585.668" y2="218.5"/>
				
					<line style="fill:none;stroke:#5971BA;stroke-width:0.8504;stroke-miterlimit:10;" x1="459.899" y1="214.902" x2="459.899" y2="222.097"/>
				
					<line style="fill:none;stroke:#5971BA;stroke-width:0.8504;stroke-miterlimit:10;" x1="455.102" y1="292.995" x2="500.579" y2="292.995"/>
				
					<rect x="418.975" y="350.259" style="fill:none;stroke:#5971BA;stroke-width:0.8504;stroke-miterlimit:10;" width="78.632" height="98.038"/>
				
					<rect x="371.005" y="375.143" style="fill:none;stroke:#5971BA;stroke-width:0.8504;stroke-miterlimit:10;" width="22.785" height="73.154"/>
				<g>
					
						<line style="fill:none;stroke:#5971BA;stroke-width:0.8504;stroke-miterlimit:10;" x1="374.003" y1="387.435" x2="390.792" y2="387.435"/>
					
						<line style="fill:none;stroke:#5971BA;stroke-width:0.8504;stroke-miterlimit:10;" x1="374.003" y1="395.53" x2="390.792" y2="395.53"/>
					
						<line style="fill:none;stroke:#5971BA;stroke-width:0.8504;stroke-miterlimit:10;" x1="374.003" y1="403.625" x2="390.792" y2="403.625"/>
					
						<line style="fill:none;stroke:#5971BA;stroke-width:0.8504;stroke-miterlimit:10;" x1="374.003" y1="411.72" x2="390.792" y2="411.72"/>
					
						<line style="fill:none;stroke:#5971BA;stroke-width:0.8504;stroke-miterlimit:10;" x1="374.003" y1="419.814" x2="390.792" y2="419.814"/>
					
						<line style="fill:none;stroke:#5971BA;stroke-width:0.8504;stroke-miterlimit:10;" x1="374.003" y1="427.909" x2="390.792" y2="427.909"/>
					
						<line style="fill:none;stroke:#5971BA;stroke-width:0.8504;stroke-miterlimit:10;" x1="374.003" y1="436.004" x2="390.792" y2="436.004"/>
				</g>
			</g>
			<g>
				<path style="fill:#9B290E;" d="M543.183,442.657c-4.986-6.982-8.276,9.07-13.874-0.916c-3.513,6.381-11.188,6.589-14.357,7.332
					c-4.343,1.018-2.654,8.657-2.654,8.657h31.608c0,0,1.689-3.31,0-8.911C543.461,447.344,543.252,445.124,543.183,442.657z"/>
				
					<line style="fill:none;stroke:#7D210B;stroke-width:0.8504;stroke-miterlimit:10;" x1="511.975" y1="454.538" x2="544.622" y2="454.538"/>
				<path style="fill:none;stroke:#7D210B;stroke-width:0.8504;stroke-miterlimit:10;" d="M541.252,454.538
					c0,0,0.485-10.508-0.542-13.46"/>
				<path style="fill:none;stroke:#7D210B;stroke-width:0.8504;stroke-miterlimit:10;" d="M517.727,454.538
					c0,0-0.94-4.701,2.276-6.045"/>
				<path style="fill:none;stroke:#7D210B;stroke-width:0.8504;stroke-miterlimit:10;" d="M538.815,441.236
					c0,0,0.821,9.346,0,13.302"/>
				<g>
					<path style="fill:#FFA07C;" d="M543.183,442.657c-0.192-6.896,0.723-15.735,0.723-15.735l-12.846,4.838
						c0.286,4.408-0.448,7.615-1.751,9.981C534.908,451.727,538.198,435.675,543.183,442.657z"/>
					<path style="fill:#9B290E;" d="M579.43,448.819c-0.527-1.484-0.855-3.72-1.055-6.203c-5.33-6.855-7.855,9.022-13.95-0.814
						c-3.19,6.322-10.817,6.531-13.935,7.271c-4.289,1.018-2.192,8.657-2.192,8.657h31.608
						C579.906,457.73,581.419,454.42,579.43,448.819z"/>
					<path style="fill:#FFA07C;" d="M578.375,442.616c-0.556-6.89-0.115-15.694-0.115-15.694l-12.588,4.838
						c0.526,4.445-0.05,7.671-1.247,10.042C570.52,451.639,573.045,435.761,578.375,442.616z"/>
				</g>
				
					<line style="fill:none;stroke:#7D210B;stroke-width:0.8504;stroke-miterlimit:10;" x1="547.805" y1="454.538" x2="580.451" y2="454.538"/>
				<path style="fill:none;stroke:#7D210B;stroke-width:0.8504;stroke-miterlimit:10;" d="M577.082,454.538
					c0,0-0.077-10.508-1.261-13.46"/>
				<path style="fill:none;stroke:#7D210B;stroke-width:0.8504;stroke-miterlimit:10;" d="M553.557,454.538
					c0,0-1.217-4.701,1.926-6.045"/>
				<path style="fill:none;stroke:#7D210B;stroke-width:0.8504;stroke-miterlimit:10;" d="M573.935,441.536
					c0,0,1.32,9.047,0.711,13.002"/>
				<path style="fill:#FFA07C;" d="M535.711,240.772c0,0,1.768-16.514-3.191-36.406c-4.442-17.819,0.609-36.511,11.687-39.185
					c14.421-3.481,43.457-10.475,44.221,10.918c0.764,21.393-15.183,52.831-14.419,63.909
					C551.853,246.885,535.711,240.772,535.711,240.772z"/>
				<path style="fill:#425CAD;" d="M535.711,240.772c0,0-9.632,12.224-10.928,34.381c-1.125,19.224,0.605,45.15,0,69.484
					c-0.532,21.393,2.524,93.086,2.524,93.086h16.808c0,0,11.46-43.807,5.73-71.693c9.168-55.774,12.988-72.426,12.988-72.426
					s29.894-8.9,11.176-53.595C560.988,242.995,535.711,240.772,535.711,240.772z"/>
				
					<line style="fill:none;stroke:#334887;stroke-width:0.8504;stroke-miterlimit:10;" x1="526.937" y1="427.599" x2="546.08" y2="427.599"/>
				<path style="fill:#425CAD;" d="M542.46,242.173c0,0-6.266,10.103-4.639,32.338c1.414,19.308,7.884,45.386,10.485,69.765
					c2.291,21.468,15.983,93.447,15.983,93.447h16.808c0,0,4.504-43.993-4.906-71.979c1.809-55.971,2.503-72.707,2.503-72.707
					s15.082-21.704-4.686-53.028C561.382,243.005,542.46,242.173,542.46,242.173z"/>
				
					<line style="fill:none;stroke:#334887;stroke-width:0.8504;stroke-miterlimit:10;" x1="563.049" y1="427.599" x2="581.792" y2="427.599"/>
				<polyline style="fill:none;stroke:#334887;stroke-width:0.8504;stroke-miterlimit:10;" points="550.598,361.456 
					562.834,296.277 572.695,291.693 				"/>
				<path style="fill:none;stroke:#334887;stroke-width:0.8504;stroke-miterlimit:10;" d="M532.884,245.273
					c0,0,30.636,5.729,43.536-1.168"/>
				<path style="fill:none;stroke:#334887;stroke-width:0.8504;stroke-miterlimit:10;" d="M549.336,260.255
					c0,0,11.97,0.255,15.026-0.891c0.509,11.842,0.509,11.842,0.509,11.842l-6.24,8.022l-9.296-5.985V260.255z"/>
				<path style="fill:none;stroke:#334887;stroke-width:0.8504;stroke-miterlimit:10;" d="M573.148,258.652
					c0,0,6.432,0.233,7.972-0.817c1.264,10.854,1.264,10.854,1.264,10.854l-2.67,7.353l-5.479-5.485L573.148,258.652z"/>
				<path style="fill:none;stroke:#334887;stroke-width:0.8504;stroke-miterlimit:10;" d="M537.552,246.015
					c0,0-6.934,20.848-7.188,57.012c-0.255,36.164,1.783,124.573,1.783,124.573"/>
				
					<line style="fill:none;stroke:#334887;stroke-width:0.8504;stroke-miterlimit:10;" x1="555.703" y1="336.233" x2="568.055" y2="427.599"/>
				<path style="fill:#FFA07C;" d="M525.623,197.358c-0.825,8.956-2.133,17.714-2.133,17.714l-27.317-27.505l-6.294,6.371
					c8.183,11.845,10.89,18.126,15.134,23.653c8.691,11.319,20.479,18.022,26.736,14.376c4.907-2.86,6.363-8.119,8.715-15.388
					c5.997-18.532,9.141-45.174-0.962-49.061C539,167.326,527.855,173.121,525.623,197.358z"/>
				<path style="fill:none;stroke:#944524;stroke-width:0.8504;stroke-miterlimit:10;" d="M536.268,227.379
					c0,0,14.748-27.896,9.643-46.45"/>
				<polygon style="fill:#FFA07C;" points="551.903,152.677 550.203,168.14 571.425,166.114 566.419,150.833 				"/>
				<path style="fill:#FFA07C;" d="M558.883,155.529c-5.059,1.145-10.12,2.334-13.249-0.075c-2.615-2.013-2.426-7.723-2.206-18.737
					c0.137-6.867,0.595-8.149,0.86-8.809c2.088-5.2,7.659-10.228,14.685-10.486c4.259-0.157,9.946,1.237,12.672,5.463
					C577.179,131.461,573.545,152.21,558.883,155.529z"/>
				<path style="fill:#AC290E;" d="M542.665,127.297c0,0,6.039,2.004,9.497,2.834c3.458,0.83,3.506,5.91,3.043,9.959
					c-0.463,4.049,1.798,16.46,12.311,12.311c10.512-4.15,17.705-22.546,5.907-33.474
					C566.081,112.127,547.278,108.345,542.665,127.297z"/>
				<path style="fill:#FFA07C;" d="M554.048,133.131c5.808-8.023,7.331,12.864,0,8.991"/>
				
					<line style="fill:none;stroke:#944524;stroke-width:0.8504;stroke-miterlimit:10;" x1="551.671" y1="153.126" x2="551.403" y2="156.424"/>
				<path style="fill:#AC290E;" d="M555.875,131.135c0,0-2.179,2.299-1.764,5.481c0.415,3.181-2.628,5.671-1.522,10.098
					c-3.458-3.181-4.315-7.469-2.503-9.406c1.812-1.937-1.258-9.268,0-10.927C551.345,124.72,555.875,131.135,555.875,131.135z"/>
				<path style="fill:#AC290E;" d="M566.074,119.338c1.107-7.469,11.204-9.129,14.385,1.245
					c3.181,10.374-5.394,21.961-11.204,13.332S566.074,119.338,566.074,119.338z"/>
				<path style="fill:none;stroke:#821F0B;stroke-width:0.8504;stroke-miterlimit:10;" d="M567.12,116.59
					c-2.69,4.188-3.046,9.029-1.485,12.487c1.561,3.458,4.622,8.984,10.492,7.189"/>
				<path style="fill:none;stroke:#821F0B;stroke-width:0.8504;stroke-miterlimit:10;" d="M567.13,125.92
					c1.245-5.533,7.072-5.533,8.931-2.213"/>
				<path style="fill:none;stroke:#821F0B;stroke-width:0.8504;stroke-miterlimit:10;" d="M570.267,118.291
					c1.897-2.176,4.925-2.591,5.832,0.729"/>
				<path style="fill:none;stroke:#821F0B;stroke-width:0.8504;stroke-miterlimit:10;" d="M573.307,124.943
					c3.354,1.569,3.033,4.717-0.057,6.601"/>
				<path style="fill:none;stroke:#821F0B;stroke-width:0.8504;stroke-miterlimit:10;" d="M577.274,121.376
					c3.299,0.809,3.458,5.037,2.213,7.04"/>
				<path style="fill:none;stroke:#821F0B;stroke-width:0.8504;stroke-miterlimit:10;" d="M572.475,126.419
					c0,0-2.625,2.945-2.112,5.988"/>
				<path style="fill:none;stroke:#821F0B;stroke-width:0.8504;stroke-miterlimit:10;" d="M553.93,131.332
					c0,0,2.353-6.7,10.376-6.376"/>
				<path style="fill:none;stroke:#821F0B;stroke-width:0.8504;stroke-miterlimit:10;" d="M555.25,123.22
					c0,0,5.937-3.174,9.961-1.712"/>
				<path style="fill:none;stroke:#821F0B;stroke-width:0.8504;stroke-miterlimit:10;" d="M558.678,118.228
					c0,0,6.124,0.037,7.922,1.421"/>
				<path style="fill:none;stroke:#821F0B;stroke-width:0.8504;stroke-miterlimit:10;" d="M563.328,130.885
					c0,0,0.859,7.596-3.181,11.722"/>
				<path style="fill:none;stroke:#821F0B;stroke-width:0.8504;stroke-miterlimit:10;" d="M566.493,136.815
					c0,0-0.646,8.516-3.243,11.113"/>
				<path style="fill:none;stroke:#821F0B;stroke-width:0.8504;stroke-miterlimit:10;" d="M570.442,138.112
					c0,0,0.306,6.432-1.561,8.299"/>
				<path style="fill:none;stroke:#821F0B;stroke-width:0.8504;stroke-miterlimit:10;" d="M572.862,138.171
					c0,0-0.033,4.54-1.303,5.809"/>
				<path style="fill:none;stroke:#821F0B;stroke-width:0.8504;stroke-miterlimit:10;" d="M548.388,123.781
					c0,0,1.245-3.847,5.256-4.262"/>
				<path style="fill:#FFA07C;" d="M491.733,197.358c-5.558-3.594-10.503-5.266-7.775-8.174c-0.895-1.829,1.314-2.848,1.314-2.848
					c-1.121-1.857,1.128-2.744,1.128-2.744c-1.398-3.025,1.724-3.517,5.259-1.249c3.535,2.268,8.46,6.929,7.809,10.203
					C498.365,198.089,491.733,197.358,491.733,197.358z"/>
				
					<line style="fill:none;stroke:#944524;stroke-width:0.8504;stroke-miterlimit:10;" x1="486.399" y1="183.592" x2="487.783" y2="184.866"/>
				
					<line style="fill:none;stroke:#944524;stroke-width:0.8504;stroke-miterlimit:10;" x1="485.249" y1="186.294" x2="486.633" y2="187.567"/>
				
					<line style="fill:none;stroke:#944524;stroke-width:0.8504;stroke-miterlimit:10;" x1="483.96" y1="189.185" x2="485.344" y2="190.458"/>
			</g>
		</g>
	</g>
</g>
</svg>
