<svg id="visual" viewBox="0 0 900 50" width="900" height="50" xmlns="http://www.w3.org/2000/svg" xmlns:xlink="http://www.w3.org/1999/xlink" version="1.1"><rect x="0" y="0" width="900" height="50" fill="#fff"></rect><path d="M0 33L10 30.3C20 27.7 40 22.3 60 21C80 19.7 100 22.3 120 24C140 25.7 160 26.3 180 28.2C200 30 220 33 240 32.2C260 31.3 280 26.7 300 25C320 23.3 340 24.7 360 27C380 29.3 400 32.7 420 33.3C440 34 460 32 480 31.5C500 31 520 32 540 30.5C560 29 580 25 600 22.8C620 20.7 640 20.3 660 19.7C680 19 700 18 720 19.3C740 20.7 760 24.3 780 27.5C800 30.7 820 33.3 840 33.5C860 33.7 880 31.3 890 30.2L900 29L900 51L890 51C880 51 860 51 840 51C820 51 800 51 780 51C760 51 740 51 720 51C700 51 680 51 660 51C640 51 620 51 600 51C580 51 560 51 540 51C520 51 500 51 480 51C460 51 440 51 420 51C400 51 380 51 360 51C340 51 320 51 300 51C280 51 260 51 240 51C220 51 200 51 180 51C160 51 140 51 120 51C100 51 80 51 60 51C40 51 20 51 10 51L0 51Z" fill="#161616" stroke-linecap="round" stroke-linejoin="miter"></path></svg>