<svg id="visual" viewBox="0 0 900 450" width="900" height="450" xmlns="http://www.w3.org/2000/svg" xmlns:xlink="http://www.w3.org/1999/xlink" version="1.1"><rect x="0" y="0" width="900" height="450" fill="#fff"></rect><path d="M0 350L21.5 348C43 346 86 342 128.8 334.2C171.7 326.3 214.3 314.7 257.2 323.7C300 332.7 343 362.3 385.8 372C428.7 381.7 471.3 371.3 514.2 356.3C557 341.3 600 321.7 642.8 319.8C685.7 318 728.3 334 771.2 334.7C814 335.3 857 320.7 878.5 313.3L900 306L900 451L878.5 451C857 451 814 451 771.2 451C728.3 451 685.7 451 642.8 451C600 451 557 451 514.2 451C471.3 451 428.7 451 385.8 451C343 451 300 451 257.2 451C214.3 451 171.7 451 128.8 451C86 451 43 451 21.5 451L0 451Z" fill="#161616" stroke-linecap="round" stroke-linejoin="miter"></path></svg>